HIERARCHY
ROOT Hips
{
	OFFSET 0.0000 0.0000 0.0000
	CHANNELS 6 Xposition Yposition Zposition Zrotation Xrotation Yrotation
	JOINT Ab
	{
		OFFSET -0.0000 8.1305 -0.0000
		CHANNELS 3 Zrotation Xrotation Yrotation
		JOINT Chest
		{
			OFFSET -0.0000 26.2902 -0.0000
			CHANNELS 3 Zrotation Xrotation Yrotation
			JOINT Neck
			{
				OFFSET -0.0000 26.2902 0.0000
				CHANNELS 3 Zrotation Xrotation Yrotation
				JOINT Head
				{
					OFFSET -0.0000 10.8167 0.0000
					CHANNELS 3 Zrotation Xrotation Yrotation
					End Site
					{
						OFFSET -0.0000 16.7167 0.0000
					}
				}
			}
			JOINT LeftCollar
			{
				OFFSET -0.0000 26.2902 0.0000
				CHANNELS 3 Zrotation Xrotation Yrotation
				JOINT LeftShoulder
				{
					OFFSET 19.6667 -0.0000 0.0000
					CHANNELS 3 Zrotation Xrotation Yrotation
					JOINT LeftElbow
					{
						OFFSET 27.2190 0.0000 0.0000
						CHANNELS 3 Zrotation Xrotation Yrotation
						JOINT LeftWrist
						{
							OFFSET 30.7431 0.0000 0.0000
							CHANNELS 3 Zrotation Xrotation Yrotation
							End Site
							{
								OFFSET 0.0000 -14.7500 0.0000
							}
						}
					}
				}
			}
			JOINT RightCollar
			{
				OFFSET -0.0000 26.2902 0.0000
				CHANNELS 3 Zrotation Xrotation Yrotation
				JOINT RightShoulder
				{
					OFFSET -19.6667 0.0000 0.0000
					CHANNELS 3 Zrotation Xrotation Yrotation
					JOINT RightElbow
					{
						OFFSET -27.2190 0.0000 0.0000
						CHANNELS 3 Zrotation Xrotation Yrotation
						JOINT RightWrist
						{
							OFFSET -30.7431 0.0000 0.0000
							CHANNELS 3 Zrotation Xrotation Yrotation
							End Site
							{
								OFFSET -0.0000 -14.7500 0.0000
							}
						}
					}
				}
			}
		}
	}
	JOINT LeftHip
	{
		OFFSET 11.8000 0.0000 0.0000
		CHANNELS 3 Zrotation Xrotation Yrotation
		JOINT LeftKnee
		{
			OFFSET -0.0000 -39.7832 0.0000
			CHANNELS 3 Zrotation Xrotation Yrotation
			JOINT LeftAnkle
			{
				OFFSET -0.0000 -41.7317 0.0000
				CHANNELS 3 Zrotation Xrotation Yrotation
				End Site
				{
					OFFSET -0.0000 -4.9167 16.7167
				}
			}
		}
	}
	JOINT RightHip
	{
		OFFSET -11.8000 0.0000 0.0000
		CHANNELS 3 Zrotation Xrotation Yrotation
		JOINT RightKnee
		{
			OFFSET -0.0000 -39.7832 0.0000
			CHANNELS 3 Zrotation Xrotation Yrotation
			JOINT RightAnkle
			{
				OFFSET -0.0000 -41.7317 0.0000
				CHANNELS 3 Zrotation Xrotation Yrotation
				End Site
				{
					OFFSET -0.0000 -4.9167 16.7167
				}
			}
		}
	}
}
MOTION
Frames: 21
Frame Time: 0.010000
-4.2053 90.4888 77.3192 357.3258 348.9137 189.3100 358.9015 348.9853 1.0281 4.6510 18.1167 0.3882 355.1665 354.0079 355.3785 3.5481 15.4406 355.1430 340.4970 357.6198 13.8292 329.5377 62.2228 326.1857 11.4438 356.0276 322.7226 89.9905 354.8211 350.7999 26.9763 356.5384 345.6500 32.7289 50.8218 20.7584 335.6365 352.1716 35.0659 268.8900 354.6321 2.8600 353.7026 341.7606 1.6701 357.1630 14.0330 3.8325 358.2576 355.7194 14.1473 356.1191 354.3121 2.1736 10.6141 19.6772 16.2156 346.1904 336.2367 311.0478 
-4.3444 90.4628 76.9568 357.2432 348.9749 189.1373 358.7664 349.0557 1.0073 4.4947 18.0320 0.4038 355.0801 354.1406 355.4509 3.5538 15.4387 355.2125 340.5010 357.6214 13.7832 329.5269 62.1792 326.2299 11.5279 356.0544 322.9049 90.0614 354.9474 351.1932 26.9214 356.5536 345.5950 33.3092 50.9705 20.2618 335.6085 352.2060 34.9385 268.9455 354.6635 2.6545 353.6639 341.8834 2.0419 357.1338 14.4206 3.3057 358.6979 355.6282 14.3496 356.0313 354.4143 2.1308 10.4989 20.1060 16.3697 346.3239 335.9342 311.0251 
-4.4829 90.4228 76.5819 357.2678 349.1172 189.1088 358.7257 349.1828 0.9281 4.3446 17.9550 0.3856 355.1683 354.2430 355.4918 3.3716 15.5071 355.2668 340.5250 357.6390 13.7058 329.6958 62.1982 326.0931 11.6254 356.0659 323.1258 89.8773 354.9042 351.1259 26.7765 356.5439 345.4022 33.9196 51.2387 19.9406 335.4360 352.1641 34.6833 268.9772 354.6433 2.3683 353.7547 342.1571 1.8649 356.9547 14.6309 3.4633 359.0516 355.5380 14.3746 356.0520 354.6474 1.9862 10.4619 20.4314 16.1675 346.5039 335.5813 311.1644 
-4.6327 90.3884 76.2129 357.2158 349.1875 188.9510 358.6046 349.2601 0.9482 4.2464 17.8483 0.4143 355.0620 354.3842 355.6004 3.2553 15.5884 355.3909 340.4534 357.6236 13.7359 329.8790 62.1328 325.9861 11.6526 356.1020 323.2128 89.8955 355.0529 351.3736 26.6765 356.5327 345.3955 34.5357 51.4028 19.3508 335.3950 352.2040 34.5546 269.0191 354.5293 2.1164 353.7433 342.3876 1.9350 356.8706 14.8136 3.6063 359.4930 355.4046 14.2510 355.9814 354.7404 1.9782 10.4154 20.8698 16.1023 346.6920 335.2817 311.1749 
-4.7877 90.3530 75.8479 357.1510 349.2340 188.7637 358.4818 349.3130 0.9494 4.1224 17.7355 0.4708 355.0220 354.5794 355.6719 3.1153 15.6485 355.4714 340.4278 357.6177 13.6914 330.0563 62.1360 325.8805 11.6934 356.1143 323.2837 89.7991 355.1227 351.4472 26.5955 356.5241 345.3595 35.1751 51.5560 18.7141 335.3633 352.2267 34.4690 269.0299 354.5460 2.0090 353.7094 342.6207 2.1030 356.8118 14.9653 3.5745 359.7466 355.2450 14.2559 355.8734 354.7808 2.0256 10.3857 21.3628 16.1626 346.8527 335.0311 311.1339 
-4.9456 90.3131 75.4835 357.0907 349.2959 188.5529 358.3651 349.3701 0.9668 4.0147 17.6483 0.5151 354.9616 354.7346 355.7638 2.9630 15.7671 355.5773 340.3800 357.6063 13.7411 330.5453 62.1886 325.4286 11.7193 356.1072 323.3653 89.8320 355.0975 351.6488 26.4975 356.5297 345.3467 35.7729 51.7021 18.1442 335.3734 352.2573 34.3774 269.0947 354.5414 2.0450 353.6842 342.8996 2.2924 356.7524 15.0513 3.6101 359.9922 355.1029 14.2222 355.7529 354.7920 2.1093 10.4028 21.9198 16.1872 346.9746 334.7821 311.1077 
-5.1018 90.2717 75.1235 357.0272 349.3492 188.3244 358.2420 349.3912 0.9691 3.9196 17.6087 0.5402 354.9043 354.9014 355.8753 2.7672 15.8726 355.7091 340.3087 357.5791 13.8107 331.0906 62.1937 324.9456 11.7450 356.1067 323.4079 89.7570 355.0395 351.7247 26.4428 356.5266 345.3684 36.2301 51.7463 17.6505 335.5189 352.3464 34.3376 269.1600 354.5108 2.2285 353.6498 343.1883 2.5143 356.7146 15.0965 3.6807 0.3292 354.9729 14.1227 355.6147 354.7395 2.2237 10.4549 22.5628 16.1550 347.1386 334.4967 311.1212 
-5.2566 90.2267 74.7609 356.9614 349.4045 188.0943 358.1266 349.3596 0.9369 3.8187 17.6499 0.5154 354.8345 355.1106 356.0185 2.5978 15.9082 355.8702 340.2360 357.5785 13.8215 331.3240 62.0358 324.8217 11.6721 356.1456 323.3092 89.7241 355.1024 351.5329 26.4775 356.5537 345.5494 36.7063 51.5387 16.9884 335.8434 352.4731 34.4687 269.2293 354.5589 2.5366 353.6040 343.4991 2.7322 356.6799 15.1117 3.7332 0.5821 354.8222 14.0392 355.4696 354.6277 2.2706 10.4541 23.3579 16.3006 347.4706 334.2129 311.1432 
-5.4129 90.1860 74.4077 356.8944 349.4481 187.8750 358.0433 349.3661 0.9297 3.6590 17.6494 0.5389 354.8715 355.1996 356.2085 2.2946 15.9720 356.1013 340.1864 357.5695 13.8803 331.5479 61.8504 324.6695 11.6395 356.1219 323.1556 89.4964 355.2216 351.3880 26.5039 356.5699 345.5957 36.9195 51.5219 16.6775 336.0613 352.5223 34.4861 269.2654 354.5464 2.7790 353.5544 343.7824 2.9406 356.6320 15.1621 3.7146 0.8486 354.6362 14.0168 355.2785 354.4503 2.1266 10.3459 24.3452 16.8470 348.1116 334.0125 311.2611 
-5.5904 90.1489 74.0559 356.8023 349.5090 187.6795 357.9300 349.3539 0.8854 3.5435 17.7173 0.5203 354.8252 355.3953 356.3402 2.1018 15.9562 356.2711 340.1312 357.5530 13.8643 331.7321 61.7265 324.5596 11.6771 356.0908 323.0076 89.7392 355.3123 351.6211 26.4931 356.5730 345.5680 36.8619 51.7883 16.6874 336.1581 352.5637 34.3521 269.4269 354.6182 3.0056 353.4278 344.1084 3.0369 356.6120 15.1671 3.7418 1.0663 354.4572 14.0136 355.0381 354.2532 2.1005 10.4684 25.3161 16.8571 348.3661 333.6788 311.3626 
-5.7356 90.0988 73.7053 356.7018 349.6054 187.4018 357.7774 349.4035 0.8710 3.4737 17.7649 0.5362 354.6146 355.6096 356.5352 2.0970 15.9017 356.4384 340.0434 357.5633 13.7916 331.3107 61.2602 325.1609 11.5319 356.1420 322.7004 89.5319 355.1494 351.0746 26.5030 356.6088 345.6650 37.0134 51.7621 16.4025 336.4201 352.6638 34.4279 269.5077 354.5840 3.4879 353.3630 344.4660 3.2446 356.5630 15.1598 3.8629 0.8792 354.1955 14.0304 354.8126 354.0040 2.2775 10.7895 26.3044 16.4224 348.7003 333.3694 311.5428 
-5.8918 90.0571 73.3689 356.6180 349.6610 187.1968 357.6435 349.3864 0.8176 3.3928 17.8695 0.4984 354.6409 355.6858 356.6855 1.7386 16.0410 356.6445 339.9589 357.5520 13.8020 331.5359 61.0292 324.9906 11.5488 356.0911 322.5370 89.7655 355.2587 351.0653 26.6058 356.6333 345.8557 37.1948 51.5506 15.9867 336.7133 352.7450 34.5824 269.7350 354.4821 3.9431 353.2772 344.7977 3.2408 356.4805 15.1016 4.0902 0.9603 354.0293 13.9672 354.5450 353.6364 2.1551 11.0447 27.5286 16.2241 348.8509 333.0310 311.7154 
-6.0738 90.0206 73.0462 356.5279 349.6352 187.0742 357.5783 349.3081 0.7296 3.1992 17.9671 0.4429 354.6535 355.7894 356.8283 1.5087 16.0696 356.8118 339.9211 357.5355 13.8418 331.9099 60.8643 324.6654 11.6153 356.0520 322.4050 89.7534 355.2747 351.1886 26.6607 356.6348 345.8711 37.1718 51.6102 15.9397 336.8615 352.7720 34.5928 269.9263 354.4753 4.3977 353.1188 345.0396 3.0076 356.3917 15.0600 4.3258 1.0276 353.8334 14.0241 354.2241 353.2011 1.9269 11.2432 28.6989 16.1942 349.4536 332.9325 312.0162 
-6.2312 89.9801 72.7212 356.4589 349.6653 186.9047 357.4827 349.2747 0.6970 3.0910 18.0723 0.4467 354.4874 355.8027 357.0160 1.4234 16.3113 357.0064 339.8642 357.5283 13.8519 332.1661 60.7463 324.4148 11.7331 355.9768 322.3195 89.8006 355.2458 351.2439 26.7361 356.6422 345.9671 37.1881 51.5594 15.7366 337.0727 352.8192 34.6948 270.0333 354.5800 4.9681 353.0401 345.3317 2.9518 356.2843 15.0358 4.3913 1.0797 353.6137 14.1384 353.9507 352.7499 1.7407 11.3885 29.9960 16.1900 350.0480 332.8835 312.4257 
-6.3813 89.9445 72.4038 356.4231 349.7072 186.7635 357.4198 349.2689 0.6581 2.9824 18.1575 0.4269 354.3111 355.9059 357.1702 1.4549 16.4009 357.1536 339.8000 357.5313 13.7954 332.3221 60.5522 324.3244 11.8126 355.9104 322.1580 89.9451 355.2896 351.3255 26.8419 356.6511 346.0474 37.2344 51.4617 15.4964 337.2383 352.8528 34.7887 270.3139 354.4839 5.4098 352.9999 345.6210 2.9333 356.1769 15.0206 4.3787 1.1708 353.4171 14.2489 353.6920 352.2580 1.5508 11.6630 31.3646 15.9154 350.6221 332.7306 312.9025 
-6.5370 89.9141 72.0976 356.3977 349.7125 186.6618 357.3928 349.2644 0.5718 2.8465 18.2040 0.3530 354.1431 356.1645 357.2991 1.5399 16.1661 357.2680 339.7025 357.5157 13.7702 332.5626 60.2955 324.2487 11.8334 355.8859 321.9111 90.0787 355.3371 351.4879 26.9030 356.6622 346.0803 37.2736 51.4951 15.3794 337.2883 352.8438 34.7887 270.4963 354.4123 5.7308 352.9495 345.8658 2.8607 356.0585 15.0051 4.3910 1.3084 353.2197 14.3615 353.3974 351.7108 1.4691 12.1191 32.6895 15.3176 351.4005 332.5429 313.4422 
-6.6679 89.8805 71.7900 356.3517 349.7855 186.4569 357.2994 349.3294 0.5428 2.7988 18.2615 0.3420 353.9390 356.3284 357.4999 1.4907 16.1253 357.4742 339.5951 357.5151 13.8123 332.7339 60.0616 324.1536 11.8840 355.8495 321.7129 90.2546 355.4038 351.5612 26.8807 356.6616 346.1125 37.1858 51.8045 15.4654 337.1673 352.7808 34.6393 270.7179 354.3791 5.8574 352.9579 346.1929 2.9948 355.9109 14.9775 4.2673 1.4441 352.9994 14.5363 353.1043 351.1156 1.3637 12.4208 34.2414 15.1264 352.0664 332.5783 313.8820 
-6.7967 89.8476 71.5033 356.3087 349.8371 186.2621 357.2655 349.4015 0.4972 2.6365 18.3091 0.3228 353.9072 356.3690 357.6851 1.3413 16.2536 357.6768 339.6089 357.4956 13.8402 332.9382 59.8939 323.9142 12.0917 355.7487 321.6302 90.0959 355.3791 351.7171 26.9777 356.6652 346.1855 37.2393 51.7272 15.3114 337.2817 352.8443 34.7169 270.4698 354.4443 5.8965 352.9505 346.4711 3.1758 355.8130 14.9689 4.2543 1.5129 352.7854 14.5189 352.7743 350.4253 1.1485 12.8349 35.8795 14.5424 352.6716 332.6849 314.5381 
-6.9201 89.8205 71.2240 356.2764 349.8934 186.0821 357.1820 349.5006 0.4578 2.5984 18.3409 0.2940 353.7621 356.4755 357.8552 1.3084 16.2332 357.8503 339.5505 357.4851 13.8447 332.9979 59.6602 323.8868 12.1357 355.7204 321.4176 90.3704 355.4456 351.8350 26.9492 356.6667 346.1871 37.2765 51.8496 15.3523 337.1725 352.7883 34.6151 270.5439 354.3493 6.0116 352.9549 346.7603 3.4185 355.7728 15.0269 4.0948 1.5497 352.5729 14.4478 352.4426 349.6538 1.1337 13.4687 37.5826 13.6609 353.3953 332.9882 315.3040 
-7.0466 89.7893 70.9409 356.2491 349.9618 185.9192 357.1296 349.6002 0.4124 2.5202 18.3667 0.2588 353.7700 356.6150 358.0259 1.0822 16.2338 358.0454 339.5570 357.4849 13.8486 333.2336 59.5906 323.6069 12.3227 355.6346 321.3261 90.4759 355.5371 352.2406 26.9189 356.6670 346.1822 37.3497 52.0003 15.3519 337.0158 352.7462 34.5280 270.5632 354.4746 5.6082 352.9561 347.0876 3.5854 355.6929 14.9525 4.1177 1.4819 352.3944 14.3894 352.0790 348.8802 1.0716 14.1061 39.2724 13.1094 354.0321 333.3455 315.8670 
-7.1654 89.7600 70.6827 356.2221 349.9925 185.7624 357.0750 349.7224 0.3597 2.4321 18.3242 0.2294 353.7858 356.7777 358.1908 0.8655 16.2194 358.2322 339.5332 357.4880 13.8180 333.3670 59.4198 323.5250 12.4217 355.5987 321.1344 90.5491 355.5799 352.4959 26.8881 356.6741 346.1758 37.5005 52.1264 15.3343 336.8661 352.6988 34.4445 270.4528 354.7084 5.3493 352.9558 347.3555 3.7801 355.6037 14.8870 4.1297 1.6352 352.2326 14.3035 351.6962 347.9911 1.0579 14.8826 41.0210 12.3475 354.1522 334.2291 316.5150 
